<svg xmlns="http://www.w3.org/2000/svg" width="179" height="36" viewBox="0 0 179 36" fill="none"><path d="M59.8789 30.0681V30.5262H50.9493V30.0681C52.6393 30.0681 53.8103 28.4041 53.2198 26.838L50.45 19.5006C50.0854 18.5315 48.8253 18.2594 48.0843 18.9916L39.65 27.3254C39.3389 27.6308 39.1864 28.0322 39.1864 28.4276C39.1864 28.9112 39.4103 29.3908 39.8461 29.6981C40.0165 29.8176 40.2048 29.9115 40.4009 29.9742C40.5971 30.0349 40.8051 30.0681 41.0151 30.0681V30.5262H34.7998V30.0681C36.1253 30.0681 37.3141 29.2518 37.7698 28.0184L44.9499 8.69611C45.0351 8.45923 45.0787 8.22039 45.0787 7.98547C45.0787 6.897 44.1852 5.93382 42.9944 5.93382V5.47767H48.5698L57.0754 28.1437C57.2914 28.7213 57.6817 29.2048 58.1711 29.5415C58.6605 29.8782 59.2548 30.0681 59.8789 30.0681ZM49.0136 15.687L45.9029 7.43732L39.2676 25.311C39.0239 25.9629 39.8481 26.4856 40.3474 25.9922L48.5262 17.9109C49.1146 17.3275 49.3048 16.4603 49.0136 15.687Z" fill="black"></path><path d="M78.8319 24.0209C78.8319 28.0928 75.4677 31 70.1559 31C64.8559 31 61.5412 28.0302 61.5412 28.0302L60.2792 21.5424L60.7329 21.4563C62.9381 27.1003 66.2666 30.6104 70.5303 30.6104C74.0075 30.6104 76.5138 28.3336 76.5138 25.2209C76.5138 17.8307 61.0321 20.3287 61.0321 11.6737C61.034 7.8406 64.6974 5 69.7814 5C72.2501 5 75.1468 6.15895 77.13 7.15149L78.3921 13.6393L77.9384 13.7254C75.6936 8.76463 73.0406 5.39154 69.1494 5.39154C65.8208 5.39154 63.3521 7.73684 63.3521 10.5755C63.3502 17.5213 78.8319 15.1271 78.8319 24.0209Z" fill="black"></path><path d="M94.0581 5.9299H92.1383V27.1982C92.1383 28.78 93.438 30.0681 95.0428 30.0681V30.5262H86.5986V30.0681C87.399 30.0681 88.1282 29.7471 88.6532 29.2283C89.1782 28.7095 89.5032 27.9891 89.5032 27.1982V5.9299H87.5833C84.1378 6.01995 81.2887 8.64325 80.9678 12.0516V12.0555H80.5061L81.0827 5.4718H100.557L101.133 12.0555H100.674C100.351 8.64521 97.5036 6.02387 94.0581 5.9299Z" fill="black"></path><path d="M116.159 30.0681C119.688 30.0681 122.634 27.4135 122.963 23.9426H123.425L122.846 30.5243H102.788V30.0642C103.588 30.0642 104.317 29.7432 104.842 29.2244C105.363 28.7056 105.692 27.9891 105.692 27.1943V8.80378C105.692 7.22197 104.393 5.93382 102.788 5.93382V5.47767H122.387L122.965 12.0594H122.502V12.0555C122.173 8.58648 119.226 5.9299 115.698 5.9299H108.323V15.6576C108.323 16.8185 109.274 17.7621 110.453 17.7621H113.104C115.44 17.7621 117.334 15.8906 117.334 13.5825H117.796V22.3901H117.334C117.334 20.082 115.44 18.2105 113.104 18.2105H110.449C109.27 18.2105 108.319 19.1541 108.319 20.315V30.0681H116.159Z" fill="black"></path><path d="M147.828 8.79986V27.1825C147.828 28.7741 149.134 30.0662 150.747 30.0662V30.5262H143.979L131.005 7.84451C130.815 7.51367 130.405 7.34531 130.017 7.48822C129.69 7.60372 129.488 7.9287 129.488 8.27129V27.2256C129.488 28.7956 130.775 30.0681 132.364 30.0681V30.5282H126.135V30.0681H126.161C127.75 30.0681 129.038 28.7956 129.038 27.2256V8.79986C129.038 7.2161 127.738 5.93186 126.135 5.93186V5.47376H132.903L145.861 28.1457C146.006 28.3982 146.275 28.5549 146.568 28.5549C146.794 28.5549 146.998 28.4648 147.143 28.318C147.291 28.1731 147.383 27.9734 147.383 27.7502V8.79986C147.383 7.2161 146.083 5.93186 144.48 5.93186V5.47376H150.749V5.93186H150.735C149.128 5.93186 147.828 7.2161 147.828 8.79986Z" fill="black"></path><path d="M178.8 18.001C178.788 20.3404 178.069 22.905 176.805 24.7941C175.539 26.7009 173.694 28.0811 171.883 29.2616C171.311 29.6277 170.694 29.9291 170.054 30.1778C167.231 31.2721 164.083 31.2662 161.248 30.2013C160.574 29.9487 159.93 29.6394 159.34 29.2616C157.529 28.0811 155.684 26.7009 154.418 24.7941C153.154 22.905 152.435 20.3404 152.423 18.001C152.435 15.6615 153.154 13.0989 154.418 11.2078C155.684 9.30495 157.529 7.92282 159.34 6.74038C159.93 6.36255 160.574 6.05323 161.248 5.80069C164.083 4.73767 167.231 4.72984 170.054 5.82418C170.694 6.07281 171.311 6.37429 171.883 6.74038C173.694 7.92282 175.539 9.30495 176.805 11.2078C178.069 13.0989 178.79 15.6615 178.8 18.001ZM175.663 18.001C175.663 16.0981 175.366 14.1933 174.687 12.3276C173.979 10.4835 172.975 8.73135 171.326 7.48626C171.261 7.43927 171.196 7.39033 171.128 7.34531C167.825 5.05286 163.397 5.05286 160.094 7.34531C160.027 7.39229 159.962 7.43927 159.896 7.48626C158.25 8.73135 157.243 10.4854 156.536 12.3276C155.855 14.1933 155.559 16.0981 155.559 18.001C155.559 19.9038 155.856 21.8106 156.536 23.6763C157.241 25.5165 158.248 27.2706 159.896 28.5157C159.962 28.5627 160.027 28.6116 160.094 28.6567C163.399 30.9491 167.825 30.9491 171.128 28.6567C171.196 28.6097 171.261 28.5627 171.326 28.5157C172.973 27.2706 173.979 25.5165 174.687 23.6763C175.368 21.8106 175.663 19.9038 175.663 18.001Z" fill="black"></path><path fill-rule="evenodd" clip-rule="evenodd" d="M5.30045 11.8065C3.22387 11.8067 1.6 13.4104 1.6 15.315C1.6 17.2198 3.22406 18.8236 5.30082 18.8236C7.37758 18.8236 9.00164 17.2198 9.00164 15.315C9.00164 13.4111 7.37831 11.8086 5.30045 11.8065ZM0 15.315C0 12.4615 2.40696 10.2065 5.30082 10.2065C8.19339 10.2092 10.6016 12.4609 10.6016 15.315C10.6016 18.1686 8.19468 20.4236 5.30082 20.4236C2.40696 20.4236 0 18.1686 0 15.315Z" fill="#C99B64"></path><path fill-rule="evenodd" clip-rule="evenodd" d="M14.2996 11.8065C12.2236 11.8067 10.6016 13.4098 10.6016 15.315C10.6016 17.2203 12.2238 18.8236 14.3 18.8236C16.3767 18.8236 18.0008 17.2198 18.0008 15.3151C18.0008 13.4111 16.3775 11.8087 14.2996 11.8065ZM9.00164 15.315C9.00164 12.4621 11.4055 10.2065 14.3 10.2065C17.1926 10.2092 19.6008 12.4609 19.6008 15.3151C19.6008 18.1686 17.1938 20.4236 14.3 20.4236C11.4055 20.4236 9.00164 18.168 9.00164 15.315Z" fill="#C99B64"></path><path fill-rule="evenodd" clip-rule="evenodd" d="M9.80172 19.2445C7.72252 19.2445 6.1009 20.8483 6.1009 22.7508C6.1009 24.6555 7.72496 26.2593 9.80172 26.2593C11.8779 26.2593 13.5001 24.6561 13.5001 22.7508C13.5001 20.8481 11.8782 19.2445 9.80172 19.2445ZM4.5009 22.7508C4.5009 19.8996 6.90542 17.6445 9.80172 17.6445C12.6959 17.6445 15.1001 19.8998 15.1001 22.7508C15.1001 25.6037 12.6962 27.8593 9.80172 27.8593C6.90786 27.8593 4.5009 25.6043 4.5009 22.7508Z" fill="#C99B64"></path><path fill-rule="evenodd" clip-rule="evenodd" d="M18.7986 19.2445C16.7215 19.2445 15.0977 20.8486 15.0977 22.7508C15.0977 24.6555 16.7218 26.2593 18.7986 26.2593C20.8753 26.2593 22.4994 24.6555 22.4994 22.7508C22.4994 20.8483 20.8778 19.2445 18.7986 19.2445ZM13.4977 22.7508C13.4977 19.8993 15.905 17.6445 18.7986 17.6445C21.6949 17.6445 24.0994 19.8996 24.0994 22.7508C24.0994 25.6043 21.6924 27.8593 18.7986 27.8593C15.9047 27.8593 13.4977 25.6043 13.4977 22.7508Z" fill="#C99B64"></path><path fill-rule="evenodd" clip-rule="evenodd" d="M14.3001 26.6872C12.224 26.6872 10.6018 28.2905 10.6018 30.1958C10.6018 32.1005 12.2234 33.702 14.3001 33.702C16.3775 33.702 18.001 32.1 18.001 30.1958C18.001 28.291 16.3769 26.6872 14.3001 26.6872ZM9.00176 30.1958C9.00176 27.3428 11.4057 25.0872 14.3001 25.0872C17.194 25.0872 19.601 27.3422 19.601 30.1958C19.601 33.0498 17.1934 35.302 14.3001 35.302C11.4063 35.302 9.00176 33.0493 9.00176 30.1958Z" fill="#C99B64"></path><path fill-rule="evenodd" clip-rule="evenodd" d="M23.2989 11.8065C21.2223 11.8067 19.5984 13.4104 19.5984 15.3151C19.5984 17.2198 21.2225 18.8236 23.2992 18.8236C25.376 18.8236 27 17.2198 27 15.3151C27 13.4108 25.3789 11.8087 23.2989 11.8065ZM17.9984 15.3151C17.9984 12.4615 20.4054 10.2065 23.2992 10.2065C26.1945 10.2092 28.6 12.4612 28.6 15.3151C28.6 18.1686 26.1931 20.4236 23.2992 20.4236C20.4054 20.4236 17.9984 18.1686 17.9984 15.3151Z" fill="#C99B64"></path><path fill-rule="evenodd" clip-rule="evenodd" d="M6.4909 1.2359C6.71357 1.61752 6.58471 2.10739 6.2031 2.33005C5.40492 2.79578 4.89112 3.62309 4.89112 4.54484C4.89112 5.16427 5.12212 5.73642 5.51413 6.19097C6.01345 6.76713 6.77672 7.14227 7.64261 7.14227C8.80005 7.14227 9.77188 6.47034 10.1826 5.54229C10.3614 5.13827 10.8339 4.95569 11.2379 5.1345C11.642 5.31331 11.8245 5.7858 11.6457 6.18983C10.9757 7.70383 9.42566 8.74227 7.64261 8.74227C6.30823 8.74227 5.10486 8.16224 4.30432 7.23804L4.30335 7.23691C3.6782 6.51248 3.29112 5.5749 3.29112 4.54484C3.29112 3.00589 4.15021 1.67544 5.39675 0.948099C5.77837 0.725432 6.26823 0.854286 6.4909 1.2359Z" fill="#C99B64"></path><path fill-rule="evenodd" clip-rule="evenodd" d="M7.34393 1.78135C6.41575 2.03403 5.7155 2.5169 5.3596 3.0968C5.1285 3.47337 4.63588 3.59128 4.25932 3.36017C3.88275 3.12906 3.76484 2.63645 3.99594 2.25988C4.62467 1.23544 5.72877 0.562821 6.92366 0.237537C8.12731 -0.0901307 9.50402 -0.0904508 10.7845 0.309508C12.0728 0.711915 13.28 1.52618 14.0912 2.83362C14.9026 4.14136 15.2748 5.87244 15.0217 8.03526C14.9703 8.47409 14.5729 8.7882 14.1341 8.73684C13.6953 8.68548 13.3812 8.2881 13.4325 7.84927C13.6528 5.96686 13.3143 4.61625 12.7316 3.67716C12.1488 2.73779 11.2787 2.14009 10.3075 1.83674C9.32844 1.53094 8.26336 1.53106 7.34393 1.78135Z" fill="#C99B64"></path><path fill-rule="evenodd" clip-rule="evenodd" d="M22.107 1.23588C22.3296 0.854262 22.8195 0.725408 23.2011 0.948075C24.4487 1.67599 25.3043 3.00694 25.3043 4.54481C25.3043 5.57182 24.9242 6.51071 24.2933 7.23832C23.4929 8.16213 22.2898 8.74225 20.9577 8.74225C19.1756 8.74225 17.6219 7.70449 16.9541 6.18858C16.7759 5.78426 16.9593 5.31208 17.3636 5.13394C17.7679 4.9558 18.2401 5.13917 18.4183 5.54349C18.8263 6.46963 19.7994 7.14225 20.9577 7.14225C21.8211 7.14225 22.5847 6.76711 23.0842 6.19045C23.4756 5.73897 23.7043 5.16759 23.7043 4.54481C23.7043 3.622 23.192 2.79518 22.3948 2.33003C22.0132 2.10736 21.8843 1.61749 22.107 1.23588Z" fill="#C99B64"></path><path fill-rule="evenodd" clip-rule="evenodd" d="M21.6766 0.237537C22.8715 0.562821 23.9756 1.23544 24.6044 2.25988C24.8355 2.63645 24.7175 3.12906 24.341 3.36017C23.9644 3.59128 23.4718 3.47337 23.2407 3.0968C22.8848 2.5169 22.1845 2.03403 21.2564 1.78135C20.3369 1.53106 19.2719 1.53094 18.2928 1.83674C17.3216 2.14009 16.4515 2.73779 15.8687 3.67716C15.286 4.61625 14.9475 5.96686 15.1678 7.84927C15.2191 8.2881 14.905 8.68548 14.4662 8.73684C14.0274 8.7882 13.63 8.47409 13.5786 8.03526C13.3255 5.87244 13.6977 4.14136 14.5091 2.83362C15.3203 1.52618 16.5275 0.711915 17.8158 0.309508C19.0963 -0.0904508 20.473 -0.0901307 21.6766 0.237537Z" fill="#C99B64"></path></svg>